G04 #@! TF.FileFunction,Copper,L2,Bot,Signal*
%FSLAX46Y46*%
G04 Gerber Fmt 4.6, Leading zero omitted, Abs format (unit mm)*
G04 Created by KiCad (PCBNEW 4.0.7) date 02/21/18 16:56:12*
%MOMM*%
%LPD*%
G01*
G04 APERTURE LIST*
%ADD10C,0.100000*%
%ADD11R,1.700000X1.700000*%
%ADD12O,1.700000X1.700000*%
%ADD13C,1.700000*%
%ADD14C,0.600000*%
%ADD15C,0.250000*%
%ADD16C,0.500000*%
G04 APERTURE END LIST*
D10*
D11*
X107000000Y-38000000D03*
D12*
X109540000Y-38000000D03*
X112080000Y-38000000D03*
X114620000Y-38000000D03*
X117160000Y-38000000D03*
X119700000Y-38000000D03*
D11*
X127000000Y-44500000D03*
D12*
X127000000Y-47040000D03*
D13*
X73500000Y-33000000D03*
X80000000Y-33000000D03*
X73500000Y-37500000D03*
X80000000Y-37500000D03*
D14*
X77000000Y-43000000D03*
X75500000Y-60000000D03*
X64000000Y-62000000D03*
X61817000Y-58705000D03*
X70500000Y-60000000D03*
X62000000Y-75500000D03*
X78500000Y-43500000D03*
X75500000Y-73000000D03*
X71000000Y-73000000D03*
X62000000Y-72000000D03*
X79500000Y-44500000D03*
X75500000Y-86000000D03*
X64000000Y-90500000D03*
X71000000Y-86000000D03*
X64000000Y-86000000D03*
X121936000Y-63896000D03*
X94000000Y-60000000D03*
X87000000Y-45000000D03*
X92000000Y-47500000D03*
X94000000Y-49000000D03*
X98000000Y-60000000D03*
X122000000Y-59500000D03*
X119000000Y-76000000D03*
X94000000Y-73000000D03*
X89000000Y-50000000D03*
X98500000Y-73000000D03*
X120000000Y-71500000D03*
X121444000Y-89408000D03*
X94000000Y-86000000D03*
X93500000Y-45500000D03*
X98500000Y-86000000D03*
X120000000Y-85000000D03*
X114500000Y-41000000D03*
X88500000Y-44000000D03*
X107000000Y-39500000D03*
X103886000Y-40132000D03*
X92583000Y-43180000D03*
X96139000Y-41021000D03*
X88392000Y-35560000D03*
X90424000Y-37592000D03*
X101500000Y-36500000D03*
X119000000Y-36000000D03*
X89000000Y-39000000D03*
X83000000Y-38000000D03*
D15*
X75500000Y-60000000D02*
X75500000Y-44500000D01*
X75500000Y-44500000D02*
X77000000Y-43000000D01*
X75500000Y-61500000D02*
X75500000Y-60000000D01*
X75000000Y-62000000D02*
X75500000Y-61500000D01*
X64000000Y-62000000D02*
X75000000Y-62000000D01*
X63112000Y-60000000D02*
X70500000Y-60000000D01*
X63112000Y-60000000D02*
X61817000Y-58705000D01*
X74500000Y-75500000D02*
X62000000Y-75500000D01*
X74500000Y-75500000D02*
X75500000Y-74500000D01*
X75500000Y-73000000D02*
X75500000Y-74500000D01*
X75500000Y-73000000D02*
X75500000Y-70000000D01*
X77500000Y-44500000D02*
X78500000Y-43500000D01*
X77500000Y-68000000D02*
X77500000Y-44500000D01*
X75500000Y-70000000D02*
X77500000Y-68000000D01*
X70000000Y-72000000D02*
X62000000Y-72000000D01*
X70000000Y-72000000D02*
X71000000Y-73000000D01*
X75500000Y-86000000D02*
X75500000Y-81500000D01*
X79500000Y-77500000D02*
X79500000Y-44500000D01*
X75500000Y-81500000D02*
X79500000Y-77500000D01*
X72500000Y-89000000D02*
X75500000Y-86000000D01*
X65500000Y-89000000D02*
X72500000Y-89000000D01*
X64000000Y-90500000D02*
X65500000Y-89000000D01*
X64000000Y-86000000D02*
X71000000Y-86000000D01*
X97500000Y-63500000D02*
X94000000Y-60000000D01*
X121540000Y-63500000D02*
X97500000Y-63500000D01*
X121936000Y-63896000D02*
X121540000Y-63500000D01*
X89000000Y-47000000D02*
X87000000Y-45000000D01*
X91500000Y-47000000D02*
X89000000Y-47000000D01*
X92000000Y-47500000D02*
X91500000Y-47000000D01*
X94000000Y-49000000D02*
X94000000Y-60000000D01*
X98500000Y-59500000D02*
X122000000Y-59500000D01*
X98500000Y-59500000D02*
X98000000Y-60000000D01*
X94000000Y-73000000D02*
X94000000Y-71500000D01*
X119000000Y-76000000D02*
X118500000Y-76500000D01*
X118500000Y-76500000D02*
X97500000Y-76500000D01*
X97500000Y-76500000D02*
X94000000Y-73000000D01*
X89000000Y-66500000D02*
X89000000Y-50000000D01*
X94000000Y-71500000D02*
X89000000Y-66500000D01*
X118500000Y-73000000D02*
X98500000Y-73000000D01*
X120000000Y-71500000D02*
X118500000Y-73000000D01*
X94000000Y-86000000D02*
X97000000Y-89000000D01*
X121036000Y-89000000D02*
X97000000Y-89000000D01*
X121036000Y-89000000D02*
X121444000Y-89408000D01*
X87500000Y-79500000D02*
X94000000Y-86000000D01*
X87500000Y-49500000D02*
X87500000Y-79500000D01*
X88000000Y-49000000D02*
X87500000Y-49500000D01*
X92500000Y-49000000D02*
X88000000Y-49000000D01*
X94000000Y-47500000D02*
X92500000Y-49000000D01*
X94000000Y-46000000D02*
X94000000Y-47500000D01*
X93500000Y-45500000D02*
X94000000Y-46000000D01*
X119000000Y-86000000D02*
X98500000Y-86000000D01*
X120000000Y-85000000D02*
X119000000Y-86000000D01*
X113000000Y-39500000D02*
X107000000Y-39500000D01*
X114500000Y-41000000D02*
X113000000Y-39500000D01*
X104500000Y-44000000D02*
X88500000Y-44000000D01*
X106500000Y-42000000D02*
X104500000Y-44000000D01*
X106500000Y-40000000D02*
X106500000Y-42000000D01*
X107000000Y-39500000D02*
X106500000Y-40000000D01*
X102997000Y-41021000D02*
X96139000Y-41021000D01*
X103886000Y-40132000D02*
X102997000Y-41021000D01*
X92583000Y-43180000D02*
X93726000Y-42037000D01*
X93726000Y-42037000D02*
X95123000Y-42037000D01*
X95123000Y-42037000D02*
X96139000Y-41021000D01*
X90424000Y-37592000D02*
X88392000Y-35560000D01*
D16*
X102500000Y-35500000D02*
X101500000Y-36500000D01*
X118500000Y-35500000D02*
X102500000Y-35500000D01*
X119000000Y-36000000D02*
X118500000Y-35500000D01*
D15*
X89000000Y-39000000D02*
X88000000Y-38000000D01*
X88000000Y-38000000D02*
X83000000Y-38000000D01*
M02*
