M48
;DRILL file {KiCad 4.0.7} date 02/21/18 16:56:01
;FORMAT={3:3/ absolute / metric / suppress leading zeros}
FMAT,2
METRIC,TZ
T1C0.400
T2C1.000
%
G90
G05
M71
T1
X61817Y-58705
X62000Y-72000
X62000Y-75500
X64000Y-62000
X64000Y-86000
X64000Y-90500
X70500Y-60000
X71000Y-73000
X71000Y-86000
X75500Y-60000
X75500Y-73000
X75500Y-86000
X77000Y-43000
X78500Y-43500
X79500Y-44500
X83000Y-38000
X87000Y-45000
X88392Y-35560
X88500Y-44000
X89000Y-39000
X89000Y-50000
X90424Y-37592
X92000Y-47500
X92583Y-43180
X93500Y-45500
X94000Y-49000
X94000Y-60000
X94000Y-73000
X94000Y-86000
X96139Y-41021
X98000Y-60000
X98500Y-73000
X98500Y-86000
X101500Y-36500
X103886Y-40132
X107000Y-39500
X114500Y-41000
X119000Y-36000
X119000Y-76000
X120000Y-71500
X120000Y-85000
X121444Y-89408
X121936Y-63896
X122000Y-59500
T2
X73500Y-33000
X73500Y-37500
X80000Y-33000
X80000Y-37500
X107000Y-38000
X109540Y-38000
X112080Y-38000
X114620Y-38000
X117160Y-38000
X119700Y-38000
X127000Y-44500
X127000Y-47040
T0
M30
