G04 #@! TF.FileFunction,Soldermask,Top*
%FSLAX46Y46*%
G04 Gerber Fmt 4.6, Leading zero omitted, Abs format (unit mm)*
G04 Created by KiCad (PCBNEW 4.0.7) date 02/21/18 16:56:12*
%MOMM*%
%LPD*%
G01*
G04 APERTURE LIST*
%ADD10C,0.100000*%
%ADD11R,2.100000X2.100000*%
%ADD12O,2.100000X2.100000*%
%ADD13R,2.100000X2.400000*%
%ADD14R,2.400000X2.100000*%
%ADD15C,2.100000*%
%ADD16R,1.900000X0.850000*%
G04 APERTURE END LIST*
D10*
D11*
X107000000Y-38000000D03*
D12*
X109540000Y-38000000D03*
X112080000Y-38000000D03*
X114620000Y-38000000D03*
X117160000Y-38000000D03*
X119700000Y-38000000D03*
D11*
X127000000Y-44500000D03*
D12*
X127000000Y-47040000D03*
D13*
X98806000Y-36989000D03*
X98806000Y-40989000D03*
X101500000Y-37000000D03*
X101500000Y-41000000D03*
D14*
X57817000Y-58705000D03*
X61817000Y-58705000D03*
X57936000Y-72064000D03*
X61936000Y-72064000D03*
X57944000Y-85836000D03*
X61944000Y-85836000D03*
X125936000Y-59324000D03*
X121936000Y-59324000D03*
X125436000Y-71556000D03*
X121436000Y-71556000D03*
X87000000Y-35500000D03*
X83000000Y-35500000D03*
X125444000Y-84836000D03*
X121444000Y-84836000D03*
X57817000Y-61880000D03*
X61817000Y-61880000D03*
X57936000Y-75620000D03*
X61936000Y-75620000D03*
X57944000Y-90408000D03*
X61944000Y-90408000D03*
X125936000Y-63896000D03*
X121936000Y-63896000D03*
X125436000Y-76128000D03*
X121436000Y-76128000D03*
X125444000Y-89408000D03*
X121444000Y-89408000D03*
D15*
X73500000Y-33000000D03*
X80000000Y-33000000D03*
X73500000Y-37500000D03*
X80000000Y-37500000D03*
D16*
X85050000Y-40725000D03*
X85050000Y-41375000D03*
X85050000Y-42025000D03*
X85050000Y-42675000D03*
X85050000Y-43325000D03*
X85050000Y-43975000D03*
X85050000Y-44625000D03*
X85050000Y-45275000D03*
X90950000Y-45275000D03*
X90950000Y-44625000D03*
X90950000Y-43975000D03*
X90950000Y-43325000D03*
X90950000Y-42675000D03*
X90950000Y-42025000D03*
X90950000Y-41375000D03*
X90950000Y-40725000D03*
D14*
X94000000Y-86000000D03*
X98000000Y-86000000D03*
X94000000Y-73000000D03*
X98000000Y-73000000D03*
X94000000Y-60000000D03*
X98000000Y-60000000D03*
X75000000Y-86000000D03*
X71000000Y-86000000D03*
X75000000Y-73000000D03*
X71000000Y-73000000D03*
X75000000Y-60000000D03*
X71000000Y-60000000D03*
D13*
X96139000Y-36989000D03*
X96139000Y-40989000D03*
M02*
